<svg
   width="32"
   height="32"
   viewBox="0 0 32 32"
   version="1.1"
   id="svg1"
   inkscape:version="1.4 (86a8ad7, 2024-10-11)"
   sodipodi:docname="better_blackbird_logo_regular_blackout.svg"
   inkscape:export-filename="better_blackbird_logo_black.png"
   inkscape:export-xdpi="1500"
   inkscape:export-ydpi="1500"
   xmlns:inkscape="http://www.inkscape.org/namespaces/inkscape"
   xmlns:sodipodi="http://sodipodi.sourceforge.net/DTD/sodipodi-0.dtd"
   xmlns="http://www.w3.org/2000/svg"
   xmlns:svg="http://www.w3.org/2000/svg">
  <sodipodi:namedview
     id="namedview1"
     pagecolor="#ffffff"
     bordercolor="#000000"
     borderopacity="0.25"
     inkscape:showpageshadow="2"
     inkscape:pageopacity="0.0"
     inkscape:pagecheckerboard="0"
     inkscape:deskcolor="#d1d1d1"
     inkscape:document-units="px"
     showgrid="false"
     inkscape:zoom="2.8284271"
     inkscape:cx="-10.606602"
     inkscape:cy="3.7123106"
     inkscape:window-width="1920"
     inkscape:window-height="1009"
     inkscape:window-x="1912"
     inkscape:window-y="-7"
     inkscape:window-maximized="1"
     inkscape:current-layer="layer1"
     inkscape:export-bgcolor="#f1f1f1ff">
    <inkscape:grid
       id="grid1"
       units="px"
       originx="0"
       originy="0"
       spacingx="1"
       spacingy="1"
       empcolor="#0099e5"
       empopacity="0.30196078"
       color="#0099e5"
       opacity="0.14901961"
       empspacing="5"
       enabled="true"
       visible="false" />
  </sodipodi:namedview>
  <defs
     id="defs1" />
  <g
     inkscape:label="Layer 1"
     inkscape:groupmode="layer"
     id="layer1">
    <rect
       style="fill:#373a40;fill-opacity:1;stroke-width:0"
       id="rect4"
       width="158.74547"
       height="175.36249"
       x="-50.558136"
       y="-49.851028" />
    <path
       id="path1"
       style="display:inline;vector-effect:non-scaling-stroke;fill:#151515;stroke-width:1;stroke-dasharray:none;-inkscape-stroke:hairline;fill-opacity:1"
       d="M 24.900391 5.0078125 A 60 60 0 0 0 0 10.421875 A 16.351025 15 0 0 1 0.00390625 10.421875 L -0.037109375 10.4375 L -0.029296875 10.460938 A 13.921165 3.1156893 0 0 0 -0.046875 10.466797 A 16.720942 15.039062 0 0 1 -0.029296875 10.464844 L -0.02734375 10.470703 L -0.009765625 10.464844 A 16.720942 15.039062 0 0 1 0.75976562 10.414062 A 16.720942 15.039062 0 0 1 17.480469 25.453125 A 16.720942 15.039062 0 0 1 10.035156 37.947266 A 17.766058 16.30765 0 0 0 13.148438 42.480469 A 7.5 15 0 0 1 9.1347656 44.894531 A 7.5 15 0 0 1 3.7597656 40.21875 A 16.720942 15.039062 0 0 1 0.75976562 40.492188 A 16.720942 15.039062 0 0 1 -2.765625 40.115234 A 16.351025 15 0 0 1 -16.855469 25.388672 A 16.351025 15 0 0 1 -16.287109 21.558594 A 60 60 0 0 0 -35.099609 65.007812 A 60 60 0 0 0 24.900391 125.00781 A 60 60 0 0 0 84.900391 65.007812 A 60 60 0 0 0 24.900391 5.0078125 z " />
  </g>
</svg>